# WaveFront *.obj file (generated by Autodesk ATF)

mtllib 3cd3efc4-4544-46dc-9cfe-8078d463e2e1.mtl

g Body2

v 14.750000 25.250000 -0.000000
v 14.525914 25.250000 2.561311
v 13.860466 25.250000 5.044797
v 12.773875 25.250000 7.375000
v 11.299156 25.250000 9.481117
v 9.481117 25.250000 11.299156
v 7.375000 25.250000 12.773875
v 5.044797 25.250000 13.860466
v 2.561311 25.250000 14.525914
v -0.000000 25.250000 14.750000
v -2.561311 25.250000 14.525914
v -5.044797 25.250000 13.860466
v -7.375000 25.250000 12.773875
v -9.481117 25.250000 11.299156
v -11.299156 25.250000 9.481117
v -12.773875 25.250000 7.375000
v -13.860466 25.250000 5.044797
v -14.525914 25.250000 2.561311
v -14.750000 25.250000 0.000000
v -14.750000 74.750000 0.000000
v -14.525914 74.750000 2.561311
v -13.860466 74.750000 5.044797
v -12.773875 74.750000 7.375000
v -11.299156 74.750000 9.481117
v -9.481117 74.750000 11.299156
v -7.375000 74.750000 12.773875
v -5.044797 74.750000 13.860466
v -2.561311 74.750000 14.525914
v -0.000000 74.750000 14.750000
v 2.561311 74.750000 14.525914
v 5.044797 74.750000 13.860466
v 7.375000 74.750000 12.773875
v 9.481117 74.750000 11.299156
v 11.299156 74.750000 9.481117
v 12.773875 74.750000 7.375000
v 13.860466 74.750000 5.044797
v 14.525914 74.750000 2.561311
v 14.750000 74.750000 -0.000000
v 15.000000 25.000000 0.000000
v -15.000000 25.000000 0.000000
v -15.000000 75.000000 0.000000
v 15.000000 75.000000 0.000000
v -14.772116 25.000000 2.604723
v -14.095389 25.000000 5.130302
v -12.990381 25.000000 7.500000
v -11.490667 25.000000 9.641814
v -9.641814 25.000000 11.490667
v -7.500000 25.000000 12.990381
v -5.130302 25.000000 14.095389
v -2.604723 25.000000 14.772116
v -0.000000 25.000000 15.000000
v 2.604723 25.000000 14.772116
v 5.130302 25.000000 14.095389
v 7.500000 25.000000 12.990381
v 9.641814 25.000000 11.490667
v 11.490667 25.000000 9.641814
v 12.990381 25.000000 7.500000
v 14.095389 25.000000 5.130302
v 14.772116 25.000000 2.604723
v 14.772116 75.000000 2.604723
v 14.095389 75.000000 5.130302
v 12.990381 75.000000 7.500000
v 11.490667 75.000000 9.641814
v 9.641814 75.000000 11.490667
v 7.500000 75.000000 12.990381
v 5.130302 75.000000 14.095389
v 2.604723 75.000000 14.772116
v -0.000000 75.000000 15.000000
v -2.604723 75.000000 14.772116
v -5.130302 75.000000 14.095389
v -7.500000 75.000000 12.990381
v -9.641814 75.000000 11.490667
v -11.490667 75.000000 9.641814
v -12.990381 75.000000 7.500000
v -14.095389 75.000000 5.130302
v -14.772116 75.000000 2.604723
vt 4.975000 4.633849 0.000000
vt 0.025000 4.633849 0.000000
vt 4.975000 4.376413 0.000000
vt 0.025000 4.376413 0.000000
vt 4.975000 4.118977 0.000000
vt 0.025000 4.118977 0.000000
vt 4.975000 3.861541 0.000000
vt 0.025000 3.861541 0.000000
vt 4.975000 3.604105 0.000000
vt 0.025000 3.604105 0.000000
vt 4.975000 3.346669 0.000000
vt 0.025000 3.346669 0.000000
vt 4.975000 3.089233 0.000000
vt 0.025000 3.089233 0.000000
vt 4.975000 2.831797 0.000000
vt 0.025000 2.831797 0.000000
vt 4.975000 2.574361 0.000000
vt 0.025000 2.574361 0.000000
vt 4.975000 2.316925 0.000000
vt 0.025000 2.316925 0.000000
vt 4.975000 2.059489 0.000000
vt 0.025000 2.059489 0.000000
vt 4.975000 1.802052 0.000000
vt 0.025000 1.802052 0.000000
vt 4.975000 1.544616 0.000000
vt 0.025000 1.544616 0.000000
vt 4.975000 1.287180 0.000000
vt 0.025000 1.287180 0.000000
vt 4.975000 1.029744 0.000000
vt 0.025000 1.029744 0.000000
vt 4.975000 0.772308 0.000000
vt 0.025000 0.772308 0.000000
vt 4.975000 0.514872 0.000000
vt 0.025000 0.514872 0.000000
vt 4.975000 0.257436 0.000000
vt 0.025000 0.257436 0.000000
vt 4.975000 0.000000 0.000000
vt 0.025000 0.000000 0.000000
vt 1.475000 0.750000 0.000000
vt -1.475000 0.750000 0.000000
vt 1.452591 0.493869 0.000000
vt -1.452591 0.493869 0.000000
vt 1.386047 0.245520 0.000000
vt -1.386047 0.245520 0.000000
vt 1.277387 0.012500 0.000000
vt -1.277387 0.012500 0.000000
vt 1.129916 -0.198112 0.000000
vt -1.129916 -0.198112 0.000000
vt 0.948112 -0.379916 0.000000
vt -0.948112 -0.379916 0.000000
vt 0.737500 -0.527387 0.000000
vt -0.737500 -0.527387 0.000000
vt 0.504480 -0.636047 0.000000
vt -0.504480 -0.636047 0.000000
vt 0.256131 -0.702591 0.000000
vt -0.256131 -0.702591 0.000000
vt 0.000000 -0.725000 0.000000
vt 1.475000 0.750000 0.000000
vt -1.475000 0.750000 0.000000
vt 1.452591 0.493869 0.000000
vt -1.452591 0.493869 0.000000
vt 1.386047 0.245520 0.000000
vt -1.386047 0.245520 0.000000
vt 1.277387 0.012500 0.000000
vt -1.277387 0.012500 0.000000
vt 1.129916 -0.198112 0.000000
vt -1.129916 -0.198112 0.000000
vt 0.948112 -0.379916 0.000000
vt -0.948112 -0.379916 0.000000
vt 0.737500 -0.527387 0.000000
vt -0.737500 -0.527387 0.000000
vt 0.504480 -0.636047 0.000000
vt -0.504480 -0.636047 0.000000
vt 0.256131 -0.702591 0.000000
vt -0.256131 -0.702591 0.000000
vt -0.000000 -0.725000 0.000000
vt 2.975000 0.025000 0.000000
vt 3.000000 0.000000 0.000000
vt 2.975000 4.975000 0.000000
vt 3.000000 5.000000 0.000000
vt -0.000000 5.000000 0.000000
vt 0.025000 0.025000 0.000000
vt -0.000000 0.000000 0.000000
vt 0.025000 4.975000 0.000000
vt -5.000000 0.000000 0.000000
vt -0.000000 0.000000 0.000000
vt -5.000000 0.261799 0.000000
vt -0.000000 0.261799 0.000000
vt -5.000000 0.523599 0.000000
vt -0.000000 0.523599 0.000000
vt -5.000000 0.785398 0.000000
vt -0.000000 0.785398 0.000000
vt -5.000000 1.047198 0.000000
vt -0.000000 1.047198 0.000000
vt -5.000000 1.308997 0.000000
vt -0.000000 1.308997 0.000000
vt -5.000000 1.570796 0.000000
vt -0.000000 1.570796 0.000000
vt -5.000000 1.832596 0.000000
vt -0.000000 1.832596 0.000000
vt -5.000000 2.094395 0.000000
vt -0.000000 2.094395 0.000000
vt -5.000000 2.356194 0.000000
vt -0.000000 2.356194 0.000000
vt -5.000000 2.617994 0.000000
vt -0.000000 2.617994 0.000000
vt -5.000000 2.879793 0.000000
vt -0.000000 2.879793 0.000000
vt -5.000000 3.141593 0.000000
vt -0.000000 3.141593 0.000000
vt -5.000000 3.403392 0.000000
vt -0.000000 3.403392 0.000000
vt -5.000000 3.665191 0.000000
vt -0.000000 3.665191 0.000000
vt -5.000000 3.926991 0.000000
vt -0.000000 3.926991 0.000000
vt -5.000000 4.188790 0.000000
vt -0.000000 4.188790 0.000000
vt -5.000000 4.450590 0.000000
vt -0.000000 4.450590 0.000000
vt -5.000000 4.712389 0.000000
vt -0.000000 4.712389 0.000000
vt 1.500000 0.750000 0.000000
vt -1.500000 0.750000 0.000000
vt 1.477212 0.489528 0.000000
vt -1.477212 0.489528 0.000000
vt 1.409539 0.236970 0.000000
vt -1.409539 0.236970 0.000000
vt 1.299038 0.000000 0.000000
vt -1.299038 0.000000 0.000000
vt 1.149067 -0.214181 0.000000
vt -1.149067 -0.214181 0.000000
vt 0.964181 -0.399067 0.000000
vt -0.964181 -0.399067 0.000000
vt 0.750000 -0.549038 0.000000
vt -0.750000 -0.549038 0.000000
vt 0.513030 -0.659539 0.000000
vt -0.513030 -0.659539 0.000000
vt 0.260472 -0.727212 0.000000
vt -0.260472 -0.727212 0.000000
vt -0.000000 -0.750000 0.000000
vt 1.500000 0.750000 0.000000
vt -1.500000 0.750000 0.000000
vt 1.477212 0.489528 0.000000
vt -1.477212 0.489528 0.000000
vt 1.409539 0.236970 0.000000
vt -1.409539 0.236970 0.000000
vt 1.299038 0.000000 0.000000
vt -1.299038 0.000000 0.000000
vt 1.149067 -0.214181 0.000000
vt -1.149067 -0.214181 0.000000
vt 0.964181 -0.399067 0.000000
vt -0.964181 -0.399067 0.000000
vt 0.750000 -0.549038 0.000000
vt -0.750000 -0.549038 0.000000
vt 0.513030 -0.659539 0.000000
vt -0.513030 -0.659539 0.000000
vt 0.260472 -0.727212 0.000000
vt -0.260472 -0.727212 0.000000
vt 0.000000 -0.750000 0.000000
vn -0.100000 0.000000 -0.000000
vn -0.100000 0.000000 -0.000000
vn -0.098481 0.000000 -0.017365
vn -0.098481 0.000000 -0.017365
vn -0.093969 0.000000 -0.034202
vn -0.093969 0.000000 -0.034202
vn -0.086603 0.000000 -0.050000
vn -0.086603 0.000000 -0.050000
vn -0.076604 0.000000 -0.064279
vn -0.076604 0.000000 -0.064279
vn -0.064279 0.000000 -0.076604
vn -0.064279 0.000000 -0.076604
vn -0.050000 0.000000 -0.086603
vn -0.050000 0.000000 -0.086603
vn -0.034202 0.000000 -0.093969
vn -0.034202 0.000000 -0.093969
vn -0.017365 0.000000 -0.098481
vn -0.017365 0.000000 -0.098481
vn 0.000000 0.000000 -0.100000
vn 0.000000 0.000000 -0.100000
vn 0.017365 0.000000 -0.098481
vn 0.017365 0.000000 -0.098481
vn 0.034202 0.000000 -0.093969
vn 0.034202 0.000000 -0.093969
vn 0.050000 0.000000 -0.086603
vn 0.050000 0.000000 -0.086603
vn 0.064279 0.000000 -0.076604
vn 0.064279 0.000000 -0.076604
vn 0.076604 0.000000 -0.064279
vn 0.076604 0.000000 -0.064279
vn 0.086603 0.000000 -0.050000
vn 0.086603 0.000000 -0.050000
vn 0.093969 0.000000 -0.034202
vn 0.093969 0.000000 -0.034202
vn 0.098481 0.000000 -0.017365
vn 0.098481 0.000000 -0.017365
vn 0.100000 0.000000 0.000000
vn 0.100000 0.000000 0.000000
vn 0.000000 -0.100000 0.000000
vn 0.000000 -0.100000 0.000000
vn 0.000000 -0.100000 0.000000
vn 0.000000 -0.100000 0.000000
vn 0.000000 -0.100000 0.000000
vn 0.000000 -0.100000 0.000000
vn 0.000000 -0.100000 0.000000
vn 0.000000 -0.100000 0.000000
vn 0.000000 -0.100000 0.000000
vn 0.000000 -0.100000 0.000000
vn 0.000000 -0.100000 0.000000
vn 0.000000 -0.100000 0.000000
vn 0.000000 -0.100000 0.000000
vn 0.000000 -0.100000 0.000000
vn 0.000000 -0.100000 0.000000
vn 0.000000 -0.100000 0.000000
vn 0.000000 -0.100000 0.000000
vn 0.000000 -0.100000 0.000000
vn 0.000000 -0.100000 0.000000
vn 0.000000 0.100000 0.000000
vn 0.000000 0.100000 0.000000
vn 0.000000 0.100000 0.000000
vn 0.000000 0.100000 0.000000
vn 0.000000 0.100000 0.000000
vn 0.000000 0.100000 0.000000
vn 0.000000 0.100000 0.000000
vn 0.000000 0.100000 0.000000
vn 0.000000 0.100000 0.000000
vn 0.000000 0.100000 0.000000
vn 0.000000 0.100000 0.000000
vn 0.000000 0.100000 0.000000
vn 0.000000 0.100000 0.000000
vn 0.000000 0.100000 0.000000
vn 0.000000 0.100000 0.000000
vn 0.000000 0.100000 0.000000
vn 0.000000 0.100000 0.000000
vn 0.000000 0.100000 0.000000
vn 0.000000 0.100000 0.000000
vn 0.000000 0.000000 -0.100000
vn 0.000000 0.000000 -0.100000
vn 0.000000 0.000000 -0.100000
vn 0.000000 0.000000 -0.100000
vn 0.000000 0.000000 -0.100000
vn 0.000000 0.000000 -0.100000
vn 0.000000 0.000000 -0.100000
vn 0.000000 0.000000 -0.100000
vn -0.100000 0.000000 0.000000
vn -0.100000 0.000000 0.000000
vn -0.098481 0.000000 0.017365
vn -0.098481 0.000000 0.017365
vn -0.093969 0.000000 0.034202
vn -0.093969 0.000000 0.034202
vn -0.086603 0.000000 0.050000
vn -0.086603 0.000000 0.050000
vn -0.076604 0.000000 0.064279
vn -0.076604 0.000000 0.064279
vn -0.064279 0.000000 0.076604
vn -0.064279 0.000000 0.076604
vn -0.050000 0.000000 0.086603
vn -0.050000 0.000000 0.086603
vn -0.034202 0.000000 0.093969
vn -0.034202 0.000000 0.093969
vn -0.017365 0.000000 0.098481
vn -0.017365 0.000000 0.098481
vn -0.000000 0.000000 0.100000
vn -0.000000 0.000000 0.100000
vn 0.017365 -0.000000 0.098481
vn 0.017365 -0.000000 0.098481
vn 0.034202 -0.000000 0.093969
vn 0.034202 -0.000000 0.093969
vn 0.050000 -0.000000 0.086603
vn 0.050000 -0.000000 0.086603
vn 0.064279 -0.000000 0.076604
vn 0.064279 -0.000000 0.076604
vn 0.076604 -0.000000 0.064279
vn 0.076604 -0.000000 0.064279
vn 0.086603 -0.000000 0.050000
vn 0.086603 -0.000000 0.050000
vn 0.093969 -0.000000 0.034202
vn 0.093969 -0.000000 0.034202
vn 0.098481 -0.000000 0.017365
vn 0.098481 -0.000000 0.017365
vn 0.100000 -0.000000 0.000000
vn 0.100000 -0.000000 0.000000
vn 0.000000 0.100000 0.000000
vn 0.000000 0.100000 0.000000
vn 0.000000 0.100000 0.000000
vn 0.000000 0.100000 0.000000
vn 0.000000 0.100000 0.000000
vn 0.000000 0.100000 0.000000
vn 0.000000 0.100000 0.000000
vn 0.000000 0.100000 0.000000
vn 0.000000 0.100000 0.000000
vn 0.000000 0.100000 0.000000
vn 0.000000 0.100000 0.000000
vn 0.000000 0.100000 0.000000
vn 0.000000 0.100000 0.000000
vn 0.000000 0.100000 0.000000
vn 0.000000 0.100000 0.000000
vn 0.000000 0.100000 0.000000
vn 0.000000 0.100000 0.000000
vn 0.000000 0.100000 0.000000
vn 0.000000 0.100000 0.000000
vn 0.000000 -0.100000 0.000000
vn 0.000000 -0.100000 0.000000
vn 0.000000 -0.100000 0.000000
vn 0.000000 -0.100000 0.000000
vn 0.000000 -0.100000 0.000000
vn 0.000000 -0.100000 0.000000
vn 0.000000 -0.100000 0.000000
vn 0.000000 -0.100000 0.000000
vn 0.000000 -0.100000 0.000000
vn 0.000000 -0.100000 0.000000
vn 0.000000 -0.100000 0.000000
vn 0.000000 -0.100000 0.000000
vn 0.000000 -0.100000 0.000000
vn 0.000000 -0.100000 0.000000
vn 0.000000 -0.100000 0.000000
vn 0.000000 -0.100000 0.000000
vn 0.000000 -0.100000 0.000000
vn 0.000000 -0.100000 0.000000
vn 0.000000 -0.100000 0.000000
usemtl Steel_-_Satin
f 38/1/1 1/2/2 37/3/3
f 37/3/3 1/2/2 2/4/4
f 37/3/3 2/4/4 36/5/5
f 36/5/5 2/4/4 3/6/6
f 36/5/5 3/6/6 35/7/7
f 35/7/7 3/6/6 4/8/8
f 35/7/7 4/8/8 34/9/9
f 34/9/9 4/8/8 5/10/10
f 34/9/9 5/10/10 33/11/11
f 33/11/11 5/10/10 6/12/12
f 33/11/11 6/12/12 32/13/13
f 32/13/13 6/12/12 7/14/14
f 32/13/13 7/14/14 31/15/15
f 31/15/15 7/14/14 8/16/16
f 31/15/15 8/16/16 30/17/17
f 30/17/17 8/16/16 9/18/18
f 30/17/17 9/18/18 29/19/19
f 29/19/19 9/18/18 10/20/20
f 29/19/19 10/20/20 28/21/21
f 28/21/21 10/20/20 11/22/22
f 28/21/21 11/22/22 27/23/23
f 27/23/23 11/22/22 12/24/24
f 27/23/23 12/24/24 26/25/25
f 26/25/25 12/24/24 13/26/26
f 26/25/25 13/26/26 25/27/27
f 25/27/27 13/26/26 14/28/28
f 25/27/27 14/28/28 24/29/29
f 24/29/29 14/28/28 15/30/30
f 24/29/29 15/30/30 23/31/31
f 23/31/31 15/30/30 16/32/32
f 23/31/31 16/32/32 22/33/33
f 22/33/33 16/32/32 17/34/34
f 22/33/33 17/34/34 21/35/35
f 21/35/35 17/34/34 18/36/36
f 21/35/35 18/36/36 20/37/37
f 20/37/37 18/36/36 19/38/38
f 20/39/39 38/40/40 21/41/41
f 21/41/41 38/40/40 37/42/42
f 21/41/41 37/42/42 22/43/43
f 22/43/43 37/42/42 36/44/44
f 22/43/43 36/44/44 23/45/45
f 23/45/45 36/44/44 35/46/46
f 23/45/45 35/46/46 24/47/47
f 24/47/47 35/46/46 34/48/48
f 24/47/47 34/48/48 25/49/49
f 25/49/49 34/48/48 33/50/50
f 25/49/49 33/50/50 26/51/51
f 26/51/51 33/50/50 32/52/52
f 26/51/51 32/52/52 27/53/53
f 27/53/53 32/52/52 31/54/54
f 27/53/53 31/54/54 28/55/55
f 28/55/55 31/54/54 30/56/56
f 28/55/55 30/56/56 29/57/57
f 1/58/58 19/59/59 2/60/60
f 2/60/60 19/59/59 18/61/61
f 2/60/60 18/61/61 3/62/62
f 3/62/62 18/61/61 17/63/63
f 3/62/62 17/63/63 4/64/64
f 4/64/64 17/63/63 16/65/65
f 4/64/64 16/65/65 5/66/66
f 5/66/66 16/65/65 15/67/67
f 5/66/66 15/67/67 6/68/68
f 6/68/68 15/67/67 14/69/69
f 6/68/68 14/69/69 7/70/70
f 7/70/70 14/69/69 13/71/71
f 7/70/70 13/71/71 8/72/72
f 8/72/72 13/71/71 12/73/73
f 8/72/72 12/73/73 9/74/74
f 9/74/74 12/73/73 11/75/75
f 9/74/74 11/75/75 10/76/76
f 19/77/77 40/78/78 20/79/79
f 20/79/79 40/78/78 41/80/80
f 20/79/79 41/80/80 42/81/81
f 19/77/77 1/82/82 40/78/78
f 40/78/78 1/82/82 39/83/83
f 39/83/83 1/82/82 38/84/84
f 39/83/83 38/84/84 42/81/81
f 42/81/81 38/84/84 20/79/79
f 41/85/85 40/86/86 76/87/87
f 76/87/87 40/86/86 43/88/88
f 76/87/87 43/88/88 75/89/89
f 75/89/89 43/88/88 44/90/90
f 75/89/89 44/90/90 74/91/91
f 74/91/91 44/90/90 45/92/92
f 74/91/91 45/92/92 73/93/93
f 73/93/93 45/92/92 46/94/94
f 73/93/93 46/94/94 72/95/95
f 72/95/95 46/94/94 47/96/96
f 72/95/95 47/96/96 71/97/97
f 71/97/97 47/96/96 48/98/98
f 71/97/97 48/98/98 70/99/99
f 70/99/99 48/98/98 49/100/100
f 70/99/99 49/100/100 69/101/101
f 69/101/101 49/100/100 50/102/102
f 69/101/101 50/102/102 68/103/103
f 68/103/103 50/102/102 51/104/104
f 68/103/103 51/104/104 67/105/105
f 67/105/105 51/104/104 52/106/106
f 67/105/105 52/106/106 66/107/107
f 66/107/107 52/106/106 53/108/108
f 66/107/107 53/108/108 65/109/109
f 65/109/109 53/108/108 54/110/110
f 65/109/109 54/110/110 64/111/111
f 64/111/111 54/110/110 55/112/112
f 64/111/111 55/112/112 63/113/113
f 63/113/113 55/112/112 56/114/114
f 63/113/113 56/114/114 62/115/115
f 62/115/115 56/114/114 57/116/116
f 62/115/115 57/116/116 61/117/117
f 61/117/117 57/116/116 58/118/118
f 61/117/117 58/118/118 60/119/119
f 60/119/119 58/118/118 59/120/120
f 60/119/119 59/120/120 42/121/121
f 42/121/121 59/120/120 39/122/122
f 42/123/123 41/124/124 60/125/125
f 60/125/125 41/124/124 76/126/126
f 60/125/125 76/126/126 61/127/127
f 61/127/127 76/126/126 75/128/128
f 61/127/127 75/128/128 62/129/129
f 62/129/129 75/128/128 74/130/130
f 62/129/129 74/130/130 63/131/131
f 63/131/131 74/130/130 73/132/132
f 63/131/131 73/132/132 64/133/133
f 64/133/133 73/132/132 72/134/134
f 64/133/133 72/134/134 65/135/135
f 65/135/135 72/134/134 71/136/136
f 65/135/135 71/136/136 66/137/137
f 66/137/137 71/136/136 70/138/138
f 66/137/137 70/138/138 67/139/139
f 67/139/139 70/138/138 69/140/140
f 67/139/139 69/140/140 68/141/141
f 40/142/142 39/143/143 43/144/144
f 43/144/144 39/143/143 59/145/145
f 43/144/144 59/145/145 44/146/146
f 44/146/146 59/145/145 58/147/147
f 44/146/146 58/147/147 45/148/148
f 45/148/148 58/147/147 57/149/149
f 45/148/148 57/149/149 46/150/150
f 46/150/150 57/149/149 56/151/151
f 46/150/150 56/151/151 47/152/152
f 47/152/152 56/151/151 55/153/153
f 47/152/152 55/153/153 48/154/154
f 48/154/154 55/153/153 54/155/155
f 48/154/154 54/155/155 49/156/156
f 49/156/156 54/155/155 53/157/157
f 49/156/156 53/157/157 50/158/158
f 50/158/158 53/157/157 52/159/159
f 50/158/158 52/159/159 51/160/160

# 76 vertices
# 160 texture params
# 160 normals
# 148 facets

# 1 groups
