# Aspose.3D Wavefront OBJ Exporter
# Copyright 2004-2020 Aspose Pty Ltd.
# File created: 12/31/2020 7:35:10 AM

mtllib material.lib

#
# object Mesh1
#

v 266.4505763234039932 45.80413865605780192 -65.3313022727836028
v 271.3617481984039728 42.04873826543280302 -65.37491097639690448
v 271.3617481984039728 47.52249803105780048 -65.37491097639690448
v 350.39514663590398416 45.97338670293279968 -66.07668877791050477
v 354.6576075734039932 42.63637498418280104 -66.11453744124059994
v 354.75635757340398864 47.95324021855780224 -66.11541436384800364
v 350.39514663590398416 45.97338670293279968 -66.07668877791050477
v 345.67872085465398872 44.6808574060577968 -66.03480935286169995
v 349.27831069840402732 39.95947068730779968 -66.06677193831089312
v 246.52666030777899664 46.69035935918279992 -65.15438775251989512
v 246.73808608902899664 40.59216599980779704 -65.1562650413383011
v 250.9805763234039944 45.3481425623077996 -65.19393624495150164
v 354.75635757340398864 47.95324021855780224 -66.11541436384800364
v 359.91284194840397952 45.65336717168280248 -66.16120125960000564
v 358.34495132340401824 50.35807420293279792 -66.14727914045940338
v 316.48262710465400008 50.40631639043279936 -65.77556237410199456
v 316.40963882340400912 44.29446092168279848 -65.77163613508830048
v 312.90559585465399552 47.8007499841828008 -65.74379998396520368
v 271.3617481984039728 47.52249803105780048 -65.37491097639690448
v 275.893349760904016 43.92544724980780304 -65.41514947126989912
v 275.893349760904016 50.07923631230779904 -65.41514947126989912
v 323.7618653859040024 47.11405076543280046 -65.84019845198280048
v 322.62926772965397504 41.27624803105779704 -65.84132821272500272
v 327.2268067921539796 45.70198045293280128 -65.87096535872109376
v 285.08973647965399323 46.4916972498077996 -65.49680886458050112
v 284.85569351090401824 40.83068162480780224 -65.49473077009800192
v 288.16717788590398186 45.10969529668280132 -65.52413506697300248
v 320.4738771046539796 48.89983201543279984 -65.811002590166396
v 319.50954116715399776 43.3647636560578036 -65.80243981550819392
v 323.7618653859040024 47.11405076543280046 -65.84019845198280048
v 261.3459474171539796 44.79679490605779792 -65.28597573469760108
v 256.14370132340400232 44.70454881230779872 -65.23978219221720564
v 259.53368179215402736 39.15702928105780246 -65.2698835105765056
v 293.18110366715399096 38.80509568730779792 -65.56865624617229568
v 294.08817397965401597 44.1222343591827979 -65.57671059797890224
v 291.84956069840399088 44.43445115605779704 -65.55683282087929344
v 295.57209976090399552 44.08410935918279705 -65.5898871726859056
v 317.40299819840402048 51.03750779668280302 -65.78373467634800416
v 316.40963882340400912 44.29446092168279848 -65.77163613508830048
v 320.4738771046539796 48.89983201543279984 -65.811002590166396
v 277.34157241715399776 51.03750779668280302 -65.428008968340194
v 277.26737319840401596 44.58023240605780304 -65.42735024641639544
v 281.12969741715397732 48.40909959355779792 -65.46164574812540592
v 237.7378614796539864 51.88634568730780224 -65.07634743879920336
v 235.43737319840400344 45.84201951543280272 -65.05592019270549997
v 241.31042007340400348 49.12096482793280216 -65.10807000349649342
v 299.17247085465402278 44.08410935918279705 -65.621856624590194
v 295.57209976090399552 44.08410935918279705 -65.5898871726859056
v 297.30471694840400688 38.73133592168279904 -65.60527199934610112
v 288.16717788590398186 45.10969529668280132 -65.52413506697300248
v 288.33950210465400232 39.3698222498077968 -65.525665218340194
v 291.84956069840399088 44.43445115605779704 -65.55683282087929344
v 244.39381851090399776 47.52249803105780048 -65.13544900129919312
v 240.56782241715399096 42.46426560918280304 -65.10147607039100138
v 246.52666030777899664 46.69035935918279992 -65.15438775251989512
v 328.37540054215401144 39.81682420293279984 -65.88116433333050288
v 330.82639663590401824 44.6808574060577968 -65.90292794417030112
v 327.2268067921539796 45.70198045293280128 -65.87096535872109376
v 331.75342788590398864 44.52568162480780248 -65.91115945051799936
v 241.31042007340400348 49.12096482793280216 -65.10807000349649342
v 265.03674819840398413 39.92521287480779792 -65.31874810408240252
v 264.77499038590400464 45.3481425623077996 -65.31642373274449652
v 261.3459474171539796 44.79679490605779792 -65.28597573469760108
v 281.12969741715397732 48.40909959355779792 -65.46164574812540592
v 280.58559585465400232 42.38937303105780072 -65.45681420515660424
v 285.08973647965399323 46.4916972498077996 -65.49680886458050112
v 340.12049819840399322 43.95978318730779936 -65.98545510481480384
v 335.4274903859039796 44.01275193730779733 -65.94378335188510224
v 337.35225601090400004 38.6963066248078036 -65.96087441633829936
v 266.4505763234039932 45.80413865605780192 -65.3313022727836028
v 308.44211929215401824 46.08487107793280302 -65.70416665266640168
v 308.53000991715401824 40.67567185918279904 -66.02357171248080192
v 304.21354507340402052 44.61385545293280328 -65.6666188926566008
v 252.72954116715399664 39.3049199060577976 -65.20946618269570648
v 254.4095997609040012 44.79679490605779792 -65.22438439558629852
v 250.9805763234039944 45.3481425623077996 -65.19393624495150164
v 256.14370132340400232 44.70454881230779872 -65.23978219221720564
v 345.67872085465398872 44.6808574060577968 -66.03480935286169995
v 343.63020522965399552 38.45730271855779848 -66.01661950300820081
v 340.12049819840399322 43.95978318730779936 -65.98545510481480384
v 312.90559585465399552 47.8007499841828008 -65.74379998396520368
v 313.29202163590400688 42.8242656091828024 -66.07018609236369855
v 308.44211929215401824 46.08487107793280302 -65.70416665266640168
v 335.4274903859039796 44.01275193730779733 -65.94378335188510224
v 332.6195216359039932 38.94324021855779712 -65.9188500327934008
v 331.75342788590398864 44.52568162480780248 -65.91115945051799936
v 304.21354507340402052 44.61385545293280328 -65.6666188926566008
v 302.71237319840400912 39.41344529668280216 -66.02357171248080192
v 299.17247085465402278 44.08410935918279705 -65.621856624590194
# 89 vertices

vn 0.00887914038707593 4.948700437100597E-12 0.999960579656012
vn 0.00887914038707593 4.948700437100597E-12 0.999960579656012
vn 0.00887914038707593 4.948700437100597E-12 0.999960579656012
vn 0.00887919311447062 1.2736521147820098E-08 0.99996057918781792
vn 0.00887919311447062 1.2736521147820098E-08 0.99996057918781792
vn 0.00887919311447062 1.2736521147820098E-08 0.99996057918781792
vn 0.00887913766191373 -1.51914682044875E-08 0.99996057968020896
vn 0.00887913766191373 -1.51914682044875E-08 0.99996057968020896
vn 0.00887913766191373 -1.51914682044875E-08 0.99996057968020896
vn 0.00887914084335816 1.05727469107201E-08 0.99996057965195984
vn 0.00887914084335816 1.05727469107201E-08 0.99996057965195984
vn 0.00887914084335816 1.05727469107201E-08 0.99996057965195984
vn 0.0088791217145155 -1.67138536897796E-08 0.99996057982181392
vn 0.0088791217145155 -1.67138536897796E-08 0.99996057982181392
vn 0.0088791217145155 -1.67138536897796E-08 0.99996057982181392
vn -0.00848511339454644 -0.00054104408578797 -0.99996385440773696
vn -0.00848511339454644 -0.00054104408578797 -0.99996385440773696
vn -0.00848511339454644 -0.00054104408578797 -0.99996385440773696
vn 0.00887918059176729 7.66466186749186E-13 0.99996057929901296
vn 0.00887918059176729 7.66466186749186E-13 0.99996057929901296
vn 0.00887918059176729 7.66466186749186E-13 0.99996057929901296
vn 0.00815549648265762 -0.00177577387629115 0.99996516664544992
vn 0.00815549648265762 -0.00177577387629115 0.99996516664544992
vn 0.00815549648265762 -0.00177577387629115 0.99996516664544992
vn 0.00887916254709001 -1.6428098293504402E-08 0.99996057945924096
vn 0.00887916254709001 -1.6428098293504402E-08 0.99996057945924096
vn 0.00887916254709001 -1.6428098293504402E-08 0.99996057945924096
vn 0.00887919300950102 -1.5864010228483202E-08 0.99996057918874992
vn 0.00887919300950102 -1.5864010228483202E-08 0.99996057918874992
vn 0.00887919300950102 -1.5864010228483202E-08 0.99996057918874992
vn 0.00887918762789953 2.53977514246331E-08 0.99996057923653584
vn 0.00887918762789953 2.53977514246331E-08 0.99996057923653584
vn 0.00887918762789953 2.53977514246331E-08 0.99996057923653584
vn 0.00887917126345129 3.0964657595912797E-10 0.99996057938184496
vn 0.00887917126345129 3.0964657595912797E-10 0.99996057938184496
vn 0.00887915507064155 3.07225556312514E-09 0.99996057952562896
vn 0.00887918745626103 -2.4529624112068904E-09 0.99996057923806
vn 0.00918605167107144 0.0004408955065199191 0.999957710138708
vn 0.00918605167107144 0.0004408955065199191 0.999957710138708
vn 0.00918605167107144 0.0004408955065199191 0.999957710138708
vn 0.00887916853657433 -2.03509896666267E-08 0.99996057940605792
vn 0.00887916853657433 -2.03509896666267E-08 0.99996057940605792
vn 0.00887916853657433 -2.03509896666267E-08 0.99996057940605792
vn 0.00887916256964559 5.195264862824729E-09 0.99996057945904096
vn 0.00887916256964559 5.195264862824729E-09 0.99996057945904096
vn 0.00887916256964559 5.195264862824729E-09 0.99996057945904096
vn 0.00887913796266405 -1.3664137608539502E-08 0.99996057967753888
vn 0.00887913796266405 -1.3664137608539502E-08 0.99996057967753888
vn 0.00887913796266405 -1.3664137608539502E-08 0.99996057967753888
vn 0.00887915976905709 5.614284949998239E-10 0.99996057948390896
vn 0.00887915976905709 5.614284949998239E-10 0.99996057948390896
vn 0.00887915976905709 5.614284949998239E-10 0.99996057948390896
vn 0.00887917840221421 -2.1788336138388197E-08 0.99996057931845488
vn 0.00887917840221421 -2.1788336138388197E-08 0.99996057931845488
vn 0.00887921593845662 -5.0182610712956196E-08 0.99996057898514992
vn 0.00887911928977887 1.3614155996648002E-08 0.99996057984334384
vn 0.00887911928977887 1.3614155996648002E-08 0.99996057984334384
vn 0.00887915617527111 -4.97398305455734E-09 0.99996057951582
vn 0.00887908240428662 3.22022950478534E-08 0.99996058017086688
vn 0.00887914086597177 6.60593843617975E-09 0.99996057965175888
vn 0.00887917773968575 -1.5778862734835603E-08 0.99996057932433888
vn 0.00887917773968575 -1.5778862734835603E-08 0.99996057932433888
vn 0.00887909801271486 -1.96274840892392E-08 0.9999605800322728
vn 0.00887915265629019 3.1840843981384304E-08 0.99996057954706688
vn 0.00887915265629019 3.1840843981384304E-08 0.99996057954706688
vn 0.00887915265629019 3.1840843981384304E-08 0.99996057954706688
vn 0.00887919039552511 -5.69153958489006E-09 0.9999605792119608
vn 0.00887919039552511 -5.69153958489006E-09 0.9999605792119608
vn 0.00887919039552511 -5.69153958489006E-09 0.9999605792119608
vn 0.00887925746665658 -1.19302413804319E-08 0.99996057861639792
vn -0.0291931623971158 0.05844799517830501 -0.99786351327668704
vn -0.0291931623971158 0.05844799517830501 -0.99786351327668704
vn -0.0291931623971158 0.05844799517830501 -0.99786351327668704
vn 0.00887912661208875 3.1290175366151E-08 0.99996057977832592
vn 0.00887912661208875 3.1290175366151E-08 0.99996057977832592
vn 0.00887919174772185 1.1362498859866301E-08 0.99996057919995392
vn 0.00887906147645562 5.12178518724356E-08 0.99996058035669296
vn -0.00887915063461148 -8.675105239504659E-09 -0.99996057956501888
vn -0.00887915063461148 -8.675105239504659E-09 -0.99996057956501888
vn -0.00887915063461148 -8.675105239504659E-09 -0.99996057956501888
vn -0.03302061586964121 0.0628560910080071 -0.99747619056836784
vn -0.03302061586964121 0.0628560910080071 -0.99747619056836784
vn -0.03302061586964121 0.0628560910080071 -0.99747619056836784
vn -0.0088791649738729 1.60895952310352E-08 -0.99996057943769296
vn -0.0088791649738729 1.60895952310352E-08 -0.99996057943769296
vn -0.0088791649738729 1.60895952310352E-08 -0.99996057943769296
vn -0.0165491446674858 0.07322282318455632 -0.99717829096689504
vn -0.0165491446674858 0.07322282318455632 -0.99717829096689504
vn -0.0165491446674858 0.07322282318455632 -0.99717829096689504
# 89 vertex normals

vt 572.36020921708200148 402.4097900390630116 0
vt 587.70822635057197656 390.67416381835897712 0
vt 587.70822635057197656 407.77966308593698848 0
vt 834.69733290484396096 402.93869018554698864 0
vt 848.01804844677803885 392.51052856445301128 0
vt 848.32665436415300064 409.125732421875 0
vt 819.95792130666495728 398.89953613281198848 0
vt 831.20708301592503632 384.14520263671801104 0
vt 510.0955171643819881 405.17922973632801132 0
vt 510.75624877526900032 386.12237548828102262 0
vt 524.01455340606901245 400.98480224609397744 0
vt 864.4413032794260516 401.93862915038999968 0
vt 859.54145192110502192 416.64083862304602232 0
vt -728.71647497718095112 416.79168982059400144 0
vt -728.48829070119404608 397.69213868525599768 0
vt -717.53781251737098048 408.649293609306028 0
vt 601.87003950198595696 396.53887939453102264 0
vt 601.87003950198595696 415.76947021484397744 0
vt 751.46485116930603 406.5016587551990028 0
vt 747.9256299943269824 388.25849644650799064 0
vt 762.29321708637303344 402.08893207114499546 0
vt 630.6098809371089828 404.55841064453102264 0
vt 629.87846782964504656 386.86773681640602256 0
vt 640.22726445472903832 400.23965454101602292 0
vt 741.18967950024295988 412.08383178711000028 0
vt 738.17601089673098614 394.78674316406301152 0
vt 751.46504794329496232 406.50326538086000024 0
vt 556.407615027339034 399.2618408203119884 0
vt 540.14995509493894588 398.97357177734301104 0
vt 550.74406168364396304 381.6375732421869884 0
vt 655.89640020588899456 380.53778076171897736 0
vt 658.7311066783789784 397.15383911132801132 0
vt 651.7351643911359816 398.1295166015630116 0
vt 663.36855755663498256 397.03469848632801131 0
vt 731.5927701491719972 418.76392890755801088 0
vt 728.48830577307694512 397.69190537510002056 0
vt 606.39591371478195472 418.76406860351602288 0
vt 606.16403201892001106 398.5850830078130116 0
vt 618.23427101634194968 410.55029296875 0
vt 482.62943809702801448 421.41668701171897736 0
vt 475.44012881078901952 402.52816772460897712 0
vt 493.79412382004898064 412.77487182617198864 0
vt 674.62016076642999 397.03469848632801131 0
vt 668.78319971654195792 380.30728149413999972 0
vt 640.76579886753802384 382.30255126953102264 0
vt 503.43012379141697464 407.77966308593801152 0
vt 491.47341465988398568 391.9726867675789776 0
vt 765.88291366491603184 383.69943237304698872 0
vt 773.54257840490697616 398.89953613281301152 0
vt 762.2934166956459876 402.09054565429698868 0
vt 776.43966526368501488 398.41461181640801216 0
vt 567.9418221494699992 384.03814697265602262 0
vt 567.12379673591897244 400.98480224609301104 0
vt 616.53388659828704024 391.73864746093698848 0
vt 802.58779076760799856 396.64617919921897736 0
vt 787.92156319928801616 396.81170654296897744 0
vt 793.93669289940601168 380.19781494140602264 0
vt -703.44301461077895968 403.43518604706997624 0
vt -703.74674413651405296 386.5024912789940004 0
vt -690.2309402708450534 398.83039011149799088 0
vt 529.48028400435600816 382.0997314453119884 0
vt 534.73067408613303536 399.2618408203119884 0
vt -819.95792130666495728 398.89953613281301152 0
vt -813.5560576127900276 379.450927734375 0
vt -802.58779076760799856 396.64617919921897736 0
vt -717.32754667378594604 408.93306797654901168 0
vt -718.5682124230779664 393.3507418263130262 0
vt -703.38272120266799448 403.5603223318889832 0
vt -787.92156319928903936 396.81170654296897744 0
vt -779.1463149325810491 380.969482421875 0
vt -776.4396652636869476 398.41461181640602264 0
vt -690.3535919462019592 398.00992062280198524 0
vt -685.68158562559199256 381.71489662144500696 0
vt -674.60008284949594784 396.35000822110299624 0
# 74 texture coords

g Mesh1
usemtl Color_J06
s 1
f 1/1/1 2/2/2 3/3/3
f 4/4/4 5/5/5 6/6/6
f 7/4/7 8/7/8 9/8/9
f 10/9/10 11/10/11 12/11/12
f 13/6/13 14/12/14 15/13/15
f 16/14/16 17/15/17 18/16/18
f 19/3/19 20/17/20 21/18/21
f 22/19/22 23/20/23 24/21/24
f 25/22/25 26/23/26 27/24/27
f 28/25/28 29/26/29 30/27/30
f 31/28/31 32/29/32 33/30/33
f 34/31/34 35/32/35 36/33/36
f 35/32/35 34/31/34 37/34/37
f 38/35/38 39/36/39 40/25/40
f 41/37/41 42/38/42 43/39/43
f 44/40/44 45/41/45 46/42/46
f 47/43/47 48/34/48 49/44/49
f 50/24/50 51/45/51 52/33/52
f 53/46/53 54/47/54 55/9/55
f 56/48/56 57/49/57 58/50/58
f 57/49/57 56/48/56 59/51/59
f 54/47/54 53/46/53 60/42/60
f 61/52/61 62/53/62 63/28/63
f 64/39/64 65/54/65 66/22/66
f 67/55/67 68/56/68 69/57/69
f 62/53/62 61/52/61 70/1/70
f 71/58/71 72/59/72 73/60/73
f 74/61/74 75/62/75 76/11/76
f 75/62/75 74/61/74 77/29/77
f 78/63/78 79/64/79 80/65/80
f 81/66/81 82/67/82 83/68/83
f 84/69/84 85/70/85 86/71/86
f 87/72/87 88/73/88 89/74/89
#33 polygons

